<svg width="364" height="364" viewBox="0 0 364 364" fill="none" xmlns="http://www.w3.org/2000/svg">
<g clip-path="url(#clip0_202_2)">
<path fill-rule="evenodd" clip-rule="evenodd" d="M196.469 79.625C196.469 76.6082 195.271 73.7149 193.137 71.5817C191.004 69.4484 188.111 68.25 185.094 68.25H34.125C25.0745 68.25 16.3947 71.8453 9.99498 78.245C3.5953 84.6447 0 93.3245 0 102.375L0 329.875C0 338.926 3.5953 347.605 9.99498 354.005C16.3947 360.405 25.0745 364 34.125 364H261.625C270.676 364 279.355 360.405 285.755 354.005C292.155 347.605 295.75 338.926 295.75 329.875V178.906C295.75 175.889 294.552 172.996 292.418 170.863C290.285 168.729 287.392 167.531 284.375 167.531C281.358 167.531 278.465 168.729 276.332 170.863C274.198 172.996 273 175.889 273 178.906V329.875C273 332.892 271.802 335.785 269.668 337.918C267.535 340.052 264.642 341.25 261.625 341.25H34.125C31.1082 341.25 28.2149 340.052 26.0817 337.918C23.9484 335.785 22.75 332.892 22.75 329.875V102.375C22.75 99.3582 23.9484 96.4649 26.0817 94.3317C28.2149 92.1984 31.1082 91 34.125 91H185.094C188.111 91 191.004 89.8016 193.137 87.6683C195.271 85.5351 196.469 82.6418 196.469 79.625Z" fill="white"/>
<path fill-rule="evenodd" clip-rule="evenodd" d="M364 11.375C364 8.35816 362.802 5.46489 360.668 3.33166C358.535 1.19843 355.642 0 352.625 0L238.875 0C235.858 0 232.965 1.19843 230.832 3.33166C228.698 5.46489 227.5 8.35816 227.5 11.375C227.5 14.3918 228.698 17.2851 230.832 19.4183C232.965 21.5516 235.858 22.75 238.875 22.75H325.166L139.821 208.072C138.764 209.129 137.925 210.385 137.353 211.766C136.78 213.148 136.486 214.629 136.486 216.125C136.486 217.621 136.78 219.102 137.353 220.484C137.925 221.865 138.764 223.121 139.821 224.178C140.879 225.236 142.135 226.075 143.516 226.647C144.898 227.22 146.379 227.514 147.875 227.514C149.371 227.514 150.852 227.22 152.234 226.647C153.615 226.075 154.871 225.236 155.929 224.178L341.25 38.8343V125.125C341.25 128.142 342.448 131.035 344.582 133.168C346.715 135.302 349.608 136.5 352.625 136.5C355.642 136.5 358.535 135.302 360.668 133.168C362.802 131.035 364 128.142 364 125.125V11.375Z" fill="white"/>
</g>
<defs>
<clipPath id="clip0_202_2">
<rect width="364" height="364" fill="white"/>
</clipPath>
</defs>
</svg>
