<svg width="100" height="100" viewBox="0 0 100 100" fill="none" xmlns="http://www.w3.org/2000/svg">
<circle cx="50.1667" cy="50.1667" r="39.5" fill="#F5D795"/>
<path d="M49.6667 91.3333C26.6542 91.3333 8 72.6792 8 49.6667C8 26.6542 26.6542 8 49.6667 8C72.6792 8 91.3333 26.6542 91.3333 49.6667C91.3333 72.6792 72.6792 91.3333 49.6667 91.3333ZM49.6667 83C58.5072 83 66.9857 79.4881 73.2369 73.2369C79.4881 66.9857 83 58.5072 83 49.6667C83 40.8261 79.4881 32.3477 73.2369 26.0964C66.9857 19.8452 58.5072 16.3333 49.6667 16.3333C40.8261 16.3333 32.3477 19.8452 26.0964 26.0964C19.8452 32.3477 16.3333 40.8261 16.3333 49.6667C16.3333 58.5072 19.8452 66.9857 26.0964 73.2369C32.3477 79.4881 40.8261 83 49.6667 83V83ZM28.8333 53.8333H37.1667C37.1667 57.1485 38.4836 60.328 40.8278 62.6722C43.172 65.0164 46.3515 66.3333 49.6667 66.3333C52.9819 66.3333 56.1613 65.0164 58.5055 62.6722C60.8497 60.328 62.1667 57.1485 62.1667 53.8333H70.5C70.5 59.3587 68.3051 64.6577 64.3981 68.5647C60.4911 72.4717 55.192 74.6667 49.6667 74.6667C44.1413 74.6667 38.8423 72.4717 34.9353 68.5647C31.0283 64.6577 28.8333 59.3587 28.8333 53.8333V53.8333ZM33 45.5C31.3424 45.5 29.7527 44.8415 28.5806 43.6694C27.4085 42.4973 26.75 40.9076 26.75 39.25C26.75 37.5924 27.4085 36.0027 28.5806 34.8306C29.7527 33.6585 31.3424 33 33 33C34.6576 33 36.2473 33.6585 37.4194 34.8306C38.5915 36.0027 39.25 37.5924 39.25 39.25C39.25 40.9076 38.5915 42.4973 37.4194 43.6694C36.2473 44.8415 34.6576 45.5 33 45.5ZM66.3333 45.5C64.6757 45.5 63.086 44.8415 61.9139 43.6694C60.7418 42.4973 60.0833 40.9076 60.0833 39.25C60.0833 37.5924 60.7418 36.0027 61.9139 34.8306C63.086 33.6585 64.6757 33 66.3333 33C67.9909 33 69.5806 33.6585 70.7528 34.8306C71.9249 36.0027 72.5833 37.5924 72.5833 39.25C72.5833 40.9076 71.9249 42.4973 70.7528 43.6694C69.5806 44.8415 67.9909 45.5 66.3333 45.5Z" fill="#79DFC1"/>
</svg>
