<svg width="100" height="100" viewBox="0 0 100 100" fill="none" xmlns="http://www.w3.org/2000/svg">
<path d="M50 91.6667C26.9875 91.6667 8.33333 73.0125 8.33333 50C8.33333 26.9875 26.9875 8.33334 50 8.33334C73.0125 8.33334 91.6667 26.9875 91.6667 50C91.6667 73.0125 73.0125 91.6667 50 91.6667ZM50 83.3334C58.8405 83.3334 67.319 79.8215 73.5702 73.5702C79.8214 67.319 83.3333 58.8406 83.3333 50C83.3333 41.1595 79.8214 32.681 73.5702 26.4298C67.319 20.1786 58.8405 16.6667 50 16.6667C41.1594 16.6667 32.681 20.1786 26.4298 26.4298C20.1786 32.681 16.6667 41.1595 16.6667 50C16.6667 58.8406 20.1786 67.319 26.4298 73.5702C32.681 79.8215 41.1594 83.3334 50 83.3334ZM29.1667 54.1667H37.5C37.5 57.4819 38.817 60.6613 41.1612 63.0055C43.5054 65.3497 46.6848 66.6667 50 66.6667C53.3152 66.6667 56.4946 65.3497 58.8388 63.0055C61.183 60.6613 62.5 57.4819 62.5 54.1667H70.8333C70.8333 59.692 68.6384 64.9911 64.7314 68.8981C60.8244 72.8051 55.5253 75 50 75C44.4747 75 39.1756 72.8051 35.2686 68.8981C31.3616 64.9911 29.1667 59.692 29.1667 54.1667ZM33.3333 45.8333C31.6757 45.8333 30.086 45.1749 28.9139 44.0028C27.7418 42.8307 27.0833 41.2409 27.0833 39.5833C27.0833 37.9257 27.7418 36.336 28.9139 35.1639C30.086 33.9918 31.6757 33.3333 33.3333 33.3333C34.9909 33.3333 36.5806 33.9918 37.7527 35.1639C38.9249 36.336 39.5833 37.9257 39.5833 39.5833C39.5833 41.2409 38.9249 42.8307 37.7527 44.0028C36.5806 45.1749 34.9909 45.8333 33.3333 45.8333ZM66.6667 45.8333C65.0091 45.8333 63.4193 45.1749 62.2472 44.0028C61.0751 42.8307 60.4167 41.2409 60.4167 39.5833C60.4167 37.9257 61.0751 36.336 62.2472 35.1639C63.4193 33.9918 65.0091 33.3333 66.6667 33.3333C68.3243 33.3333 69.914 33.9918 71.0861 35.1639C72.2582 36.336 72.9167 37.9257 72.9167 39.5833C72.9167 41.2409 72.2582 42.8307 71.0861 44.0028C69.914 45.1749 68.3243 45.8333 66.6667 45.8333Z" fill="#79DFC1"/>
</svg>
