<svg width="31" height="31" viewBox="0 0 31 31" fill="none" xmlns="http://www.w3.org/2000/svg">
<path fill-rule="evenodd" clip-rule="evenodd" d="M15.5 29.1667C23.0483 29.1667 29.1667 23.0483 29.1667 15.5C29.1667 7.95173 23.0483 1.83333 15.5 1.83333C7.95173 1.83333 1.83333 7.95173 1.83333 15.5C1.83333 23.0483 7.95173 29.1667 15.5 29.1667ZM15.5 30.875C23.9913 30.875 30.875 23.9913 30.875 15.5C30.875 7.00873 23.9913 0.125 15.5 0.125C7.00873 0.125 0.125 7.00873 0.125 15.5C0.125 23.9913 7.00873 30.875 15.5 30.875Z" fill="#89BCE1"/>
<path fill-rule="evenodd" clip-rule="evenodd" d="M13.1818 13.1502C13.2732 13.4902 13.3065 13.8634 13.1955 14.1692C13.1739 14.2285 13.1395 14.2822 13.0947 14.3265C13.0499 14.3709 12.9958 14.4048 12.9364 14.4257C12.8769 14.4467 12.8136 14.4543 12.7508 14.4479C12.6881 14.4415 12.6276 14.4213 12.5736 14.3887C12.3453 14.2448 12.1267 14.0858 11.9193 13.913L11.7528 13.7763C11.599 13.6516 11.4504 13.5303 11.2967 13.415C10.8679 13.0947 10.5279 12.9256 10.2332 12.9401C9.924 12.9555 9.54988 13.1716 9.06984 13.5508C8.93403 13.6576 8.78882 13.7789 8.63848 13.9053C8.30707 14.182 7.94832 14.4818 7.60751 14.7005C7.54717 14.7394 7.47802 14.7624 7.40644 14.7675C7.33486 14.7725 7.26316 14.7595 7.19795 14.7295C7.13275 14.6995 7.07614 14.6536 7.03337 14.596C6.99059 14.5384 6.96303 14.4709 6.95321 14.3998C6.91051 14.0881 6.97542 13.6986 7.09757 13.3176C7.23696 12.8883 7.43686 12.481 7.69121 12.1081C8.2208 11.3334 9.08009 10.6031 10.2307 10.6509C11.3411 10.6979 12.1645 11.3488 12.6599 12.0577C12.9093 12.4131 13.0853 12.7949 13.1809 13.1502H13.1818ZM17.7465 13.1502C17.6542 13.4902 17.6209 13.8634 17.7319 14.1692C17.7535 14.2286 17.7879 14.2824 17.8328 14.3268C17.8777 14.3713 17.9318 14.4052 17.9914 14.4262C18.0509 14.4472 18.1144 14.4547 18.1772 14.4483C18.24 14.4418 18.3006 14.4215 18.3546 14.3887C18.5784 14.2538 18.7997 14.0812 19.0081 13.913L19.1755 13.7763C19.3292 13.6516 19.4779 13.5303 19.6316 13.415C20.0595 13.0947 20.4004 12.9256 20.6942 12.9401C21.0043 12.9555 21.3775 13.1716 21.8584 13.5508C21.9934 13.6576 22.1386 13.7789 22.2898 13.9053C22.6203 14.182 22.9791 14.4818 23.3208 14.7005C23.3811 14.7392 23.4501 14.762 23.5216 14.767C23.5931 14.772 23.6646 14.7589 23.7297 14.7289C23.7948 14.699 23.8513 14.6531 23.894 14.5956C23.9367 14.5381 23.9643 14.4708 23.9742 14.3998C24.0169 14.0881 23.952 13.6986 23.8307 13.3176C23.6913 12.8883 23.4914 12.481 23.237 12.1081C22.7075 11.3334 21.8473 10.6031 20.6968 10.6509C19.5863 10.6979 18.7638 11.3488 18.2675 12.0577C18.0328 12.3895 17.8566 12.759 17.7465 13.1502ZM15.5 26.6042C12.0509 26.6042 9.0613 24.0007 7.59213 20.1979C7.57775 20.1613 7.56352 20.1245 7.54942 20.0877C7.16846 19.0704 7.98334 18.0625 9.07069 18.0625H21.9302C23.0175 18.0625 23.8333 19.0704 23.4506 20.0877C23.4368 20.1245 23.4228 20.1613 23.4087 20.1979C21.9387 24.0007 18.9491 26.6042 15.5 26.6042ZM21.7149 19.8323C21.4587 20.4542 21.1606 21.0248 20.8309 21.5407H10.1692C9.87147 21.0734 9.61072 20.5836 9.3893 20.0758V19.8323H21.7149Z" fill="#89BCE1"/>
<path fill-rule="evenodd" clip-rule="evenodd" d="M21.7115 23.249C21.9054 22.997 22.0908 22.7339 22.2667 22.4606C22.7443 21.7139 23.1408 20.9185 23.4497 20.0877C23.7769 19.219 23.2294 18.3563 22.3846 18.1232C22.2363 18.0825 22.0831 18.0621 21.9293 18.0625H9.07069C8.91686 18.0624 8.76372 18.0831 8.61542 18.124C8.23057 18.2278 7.89773 18.4703 7.68096 18.8048C7.55944 18.9931 7.48425 19.2076 7.46153 19.4306C7.43882 19.6536 7.46923 19.8788 7.55028 20.0877C7.63661 20.3148 7.72832 20.5398 7.82532 20.7625C8.09011 21.3647 8.39419 21.9327 8.7333 22.4606C8.90925 22.7339 9.09461 22.997 9.28851 23.2482C10.8892 25.3246 13.081 26.6042 15.5 26.6042C17.9181 26.6042 20.1108 25.3246 21.7115 23.249ZM21.7149 19.8323C21.4711 20.4267 21.1753 20.9984 20.8309 21.5407H10.1692C9.87147 21.0734 9.61072 20.5836 9.3893 20.0758V19.8323H21.7149Z" fill="#89BCE1"/>
</svg>
