<svg width="100" height="100" viewBox="0 0 100 100" fill="none" xmlns="http://www.w3.org/2000/svg">
<path d="M50 8.33334C27.025 8.33334 8.33333 27.025 8.33333 50C8.33333 72.975 27.025 91.6667 50 91.6667C72.975 91.6667 91.6667 72.975 91.6667 50C91.6667 27.025 72.975 8.33334 50 8.33334ZM50 83.3334C31.6208 83.3334 16.6667 68.3792 16.6667 50C16.6667 31.6208 31.6208 16.6667 50 16.6667C68.3792 16.6667 83.3333 31.6208 83.3333 50C83.3333 68.3792 68.3792 83.3334 50 83.3334Z" fill="#20C997"/>
<path d="M35.4167 50C38.8684 50 41.6667 47.2018 41.6667 43.75C41.6667 40.2982 38.8684 37.5 35.4167 37.5C31.9649 37.5 29.1667 40.2982 29.1667 43.75C29.1667 47.2018 31.9649 50 35.4167 50Z" fill="#20C997"/>
<path d="M64.5542 49.9417C67.9898 49.9417 70.775 47.1565 70.775 43.7208C70.775 40.2852 67.9898 37.5 64.5542 37.5C61.1185 37.5 58.3333 40.2852 58.3333 43.7208C58.3333 47.1565 61.1185 49.9417 64.5542 49.9417Z" fill="#20C997"/>
<path d="M50 75C66.6667 75 70.8333 58.3333 70.8333 58.3333H29.1667C29.1667 58.3333 33.3333 75 50 75Z" fill="#20C997"/>
</svg>
