<svg width="100" height="100" viewBox="0 0 100 100" fill="none" xmlns="http://www.w3.org/2000/svg">
<circle cx="50.1667" cy="50.1667" r="39.5" fill="#F5D795"/>
<path d="M49.6667 8C26.6917 8 8 26.6917 8 49.6667C8 72.6417 26.6917 91.3333 49.6667 91.3333C72.6417 91.3333 91.3333 72.6417 91.3333 49.6667C91.3333 26.6917 72.6417 8 49.6667 8ZM49.6667 83C31.2875 83 16.3333 68.0458 16.3333 49.6667C16.3333 31.2875 31.2875 16.3333 49.6667 16.3333C68.0458 16.3333 83 31.2875 83 49.6667C83 68.0458 68.0458 83 49.6667 83Z" fill="#20C997"/>
<path d="M35.0833 49.6667C38.5351 49.6667 41.3333 46.8684 41.3333 43.4167C41.3333 39.9649 38.5351 37.1667 35.0833 37.1667C31.6316 37.1667 28.8333 39.9649 28.8333 43.4167C28.8333 46.8684 31.6316 49.6667 35.0833 49.6667Z" fill="#20C997"/>
<path d="M64.2208 49.6083C67.6565 49.6083 70.4417 46.8232 70.4417 43.3875C70.4417 39.9518 67.6565 37.1667 64.2208 37.1667C60.7852 37.1667 58 39.9518 58 43.3875C58 46.8232 60.7852 49.6083 64.2208 49.6083Z" fill="#20C997"/>
<path d="M49.6667 74.6667C66.3333 74.6667 70.5 58 70.5 58H28.8333C28.8333 58 33 74.6667 49.6667 74.6667Z" fill="#20C997"/>
</svg>
