<svg width="100" height="100" viewBox="0 0 100 100" fill="none" xmlns="http://www.w3.org/2000/svg">
<circle cx="49.1667" cy="50.1667" r="39.5" fill="#F5D795"/>
<path d="M49.6667 74.6667C66.3333 74.6667 70.5 58 70.5 58H28.8333C28.8333 58 33 74.6667 49.6667 74.6667Z" fill="#13795B"/>
<path d="M49.6667 8C26.6917 8 8 26.6917 8 49.6667C8 72.6417 26.6917 91.3333 49.6667 91.3333C72.6417 91.3333 91.3333 72.6417 91.3333 49.6667C91.3333 26.6917 72.6417 8 49.6667 8ZM49.6667 83C31.2875 83 16.3333 68.0458 16.3333 49.6667C16.3333 31.2875 31.2875 16.3333 49.6667 16.3333C68.0458 16.3333 83 31.2875 83 49.6667C83 68.0458 68.0458 83 49.6667 83Z" fill="#13795B"/>
<path d="M53.8333 49.6667L62.1667 49.7167C62.2167 47.7917 62.975 45.5 66.3333 45.5C69.6917 45.5 70.45 47.7917 70.5 49.6667H78.8333C78.8333 44.6417 75.5042 37.1667 66.3333 37.1667C57.1625 37.1667 53.8333 44.6417 53.8333 49.6667ZM33 45.5C36.3583 45.5 37.1167 47.7917 37.1667 49.6667H45.5C45.5 44.6417 42.1708 37.1667 33 37.1667C23.8292 37.1667 20.5 44.6417 20.5 49.6667L28.8333 49.7167C28.8833 47.7917 29.6417 45.5 33 45.5Z" fill="#13795B"/>
</svg>
