<svg width="100" height="100" viewBox="0 0 100 100" fill="none" xmlns="http://www.w3.org/2000/svg">
<path d="M50 75C66.6667 75 70.8333 58.3333 70.8333 58.3333H29.1667C29.1667 58.3333 33.3333 75 50 75Z" fill="#13795B"/>
<path d="M50 8.33334C27.025 8.33334 8.33334 27.025 8.33334 50C8.33334 72.975 27.025 91.6667 50 91.6667C72.975 91.6667 91.6667 72.975 91.6667 50C91.6667 27.025 72.975 8.33334 50 8.33334ZM50 83.3334C31.6208 83.3334 16.6667 68.3792 16.6667 50C16.6667 31.6208 31.6208 16.6667 50 16.6667C68.3792 16.6667 83.3333 31.6208 83.3333 50C83.3333 68.3792 68.3792 83.3334 50 83.3334Z" fill="#13795B"/>
<path d="M54.1667 50L62.5 50.05C62.55 48.125 63.3083 45.8333 66.6667 45.8333C70.025 45.8333 70.7833 48.125 70.8333 50H79.1667C79.1667 44.975 75.8375 37.5 66.6667 37.5C57.4958 37.5 54.1667 44.975 54.1667 50ZM33.3333 45.8333C36.6917 45.8333 37.45 48.125 37.5 50H45.8333C45.8333 44.975 42.5042 37.5 33.3333 37.5C24.1625 37.5 20.8333 44.975 20.8333 50L29.1667 50.05C29.2167 48.125 29.975 45.8333 33.3333 45.8333Z" fill="#13795B"/>
</svg>
